<svg xmlns="http://www.w3.org/2000/svg" xmlns:xlink="http://www.w3.org/1999/xlink" height="48" width="48"><defs><linearGradient id="b" x1="-149.527" gradientUnits="userSpaceOnUse" x2="-150.71" gradientTransform="matrix(.24693 0 0 .24881 31.255 .175)" y1="-42.151" y2="69.331"><stop stop-color="#fff" offset="0" stop-opacity=".679"/><stop stop-color="#9dbbe1" stop-opacity="0" offset="1"/></linearGradient><linearGradient id="a" y2="145.91" gradientUnits="userSpaceOnUse" y1="-35.774" x2="-150.66" x1="-150.66" gradientTransform="matrix(.2389 0 0 .2389 6.846 11.705)"><stop stop-color="#fb1300" offset="0"/><stop stop-color="#bf0000" offset="1"/></linearGradient><linearGradient gradientUnits="userSpaceOnUse" y2="45.968" x2="24.442" y1="2.105" x1="24.001" id="c" xlink:href="#a"/><linearGradient y2="52.123" x2="24.015" y1="1.584" x1="24.214" gradientTransform="matrix(.97778 0 0 .39995 .533 1.526)" gradientUnits="userSpaceOnUse" id="d" xlink:href="#b"/></defs><path d="M10.656 14.108a2.372 2.372 0 0 0-2.377 2.377V28.49a2.372 2.372 0 0 0 2.377 2.377h14.16c1.876 2.63 6.69 9.36 6.736 9.182.045-.18.114-6.547.142-9.182h2.142a2.372 2.372 0 0 0 2.378-2.377V16.485a2.372 2.372 0 0 0-2.378-2.377h-23.18zm3.53 5.008c.333 0 .632.048.897.143.267.094.486.219.662.378.18.158.318.339.409.532.094.193.142.379.142.563a.781.781 0 0 1-.154.496.496.496 0 0 1-.421.192.447.447 0 0 1-.341-.155 2.89 2.89 0 0 1-.316-.458 1.376 1.376 0 0 0-.34-.415c-.133-.103-.312-.155-.539-.155a.843.843 0 0 0-.582.204.632.632 0 0 0-.229.502.64.64 0 0 0 .167.458c.113.116.266.214.458.291.192.077.456.173.793.285.4.133.726.292.978.477a1.79 1.79 0 0 1 .774 1.51c0 .485-.087.903-.26 1.25a1.769 1.769 0 0 1-.768.787c-.337.176-.747.266-1.232.266-.463 0-.858-.097-1.189-.29a1.918 1.918 0 0 1-.736-.725 1.82 1.82 0 0 1-.236-.873c0-.193.054-.358.155-.495.1-.138.224-.21.378-.21.135 0 .243.045.316.135.072.09.138.221.204.384.132.314.294.545.477.7.185.154.437.235.755.235.258 0 .468-.08.631-.235a.722.722 0 0 0 .248-.539c0-.309-.087-.54-.26-.68-.17-.142-.448-.274-.842-.403a6.085 6.085 0 0 1-1.09-.47 1.951 1.951 0 0 1-.662-.657c-.167-.27-.254-.602-.254-.997 0-.352.081-.69.235-1.003.155-.313.382-.558.681-.743.303-.189.665-.285 1.09-.285zm3.992 0c.177 0 .324.085.44.248.12.159.18.38.18.663v.167c.223-.365.463-.633.718-.805.255-.172.536-.26.848-.26.324 0 .603.09.836.266.233.176.424.442.576.799.217-.36.45-.627.7-.799a1.41 1.41 0 0 1 .829-.266c.352 0 .655.096.91.285.255.189.444.459.57.81.11.318.167.816.167 1.499v3.436c0 .37-.063.645-.186.83-.123.184-.282.278-.483.278-.195 0-.357-.094-.483-.278-.123-.19-.186-.465-.186-.83V22.2c0-.377-.012-.675-.037-.903a1.233 1.233 0 0 0-.192-.576c-.104-.154-.26-.229-.47-.229a.714.714 0 0 0-.483.204c-.151.138-.274.32-.36.551-.094.297-.142.822-.142 1.573v2.34c0 .37-.056.645-.18.83a.567.567 0 0 1-.488.279c-.196 0-.354-.094-.477-.28-.12-.184-.18-.46-.18-.829v-2.804c0-.443-.008-.783-.03-1.028a1.344 1.344 0 0 0-.18-.6c-.098-.16-.253-.236-.464-.236-.422 0-.7.193-.836.588-.132.395-.198.964-.198 1.703v2.377c0 .365-.063.641-.186.83-.12.185-.278.278-.477.278-.195 0-.357-.093-.483-.278-.122-.189-.18-.465-.18-.83v-5.033c0-.33.052-.578.162-.75.113-.171.263-.26.445-.26zm9.814 0c.333 0 .633.048.897.143.268.094.493.219.669.378.18.158.311.339.402.532.095.193.143.379.143.563a.779.779 0 0 1-.149.496.496.496 0 0 1-.42.192.447.447 0 0 1-.341-.155 2.89 2.89 0 0 1-.316-.458 1.39 1.39 0 0 0-.347-.415c-.132-.103-.312-.155-.538-.155a.843.843 0 0 0-.582.204.632.632 0 0 0-.23.502.64.64 0 0 0 .168.458c.113.116.266.214.458.291.192.077.455.173.792.285.4.133.727.292.979.477a1.79 1.79 0 0 1 .774 1.51c0 .485-.087.903-.26 1.25a1.769 1.769 0 0 1-.768.787c-.337.176-.748.266-1.232.266-.463 0-.859-.097-1.19-.29a1.9 1.9 0 0 1-.73-.725 1.83 1.83 0 0 1-.241-.873c0-.193.054-.358.155-.495.1-.138.23-.21.383-.21.136 0 .238.045.31.135.072.09.144.221.21.384.133.314.288.545.471.7.186.154.437.235.755.235.259 0 .468-.08.632-.235.167-.159.254-.337.254-.539 0-.309-.087-.54-.26-.68-.17-.142-.455-.274-.848-.403a6.003 6.003 0 0 1-1.084-.47 1.97 1.97 0 0 1-.669-.657c-.166-.27-.247-.602-.247-.997 0-.352.075-.69.229-1.003.154-.313.382-.558.68-.743.303-.189.666-.285 1.09-.285z" fill="#fff"/><rect ry="10.258" y="1.5" x="1.5" height="45" width="45" fill="url(#c)" fill-rule="evenodd" stroke="#ae0611"/><path d="M11.698 1.813h24.521A9.76 9.76 0 0 1 46 11.593V23H1.917V11.594a9.76 9.76 0 0 1 9.78-9.781z" fill="url(#d)" fill-rule="evenodd"/><path d="M7 17.2v13.36c0 1.758 1.29 3.458 2.894 3.458h17.233L36.465 43l-.966-8.982h2.607c1.603 0 2.894-1.7 2.894-3.458V17.2c0-1.758-.93-3.211-2.894-3.211H9.894C7.727 13.989 7 15.324 7 17.2z" fill="#fff"/><g style="line-height:150%;-inkscape-font-specification:'Nimbus Sans L, Condensed';font-variant-ligatures:normal;font-variant-caps:normal;font-variant-numeric:normal;font-feature-settings:normal;text-align:start" aria-label="sms" font-weight="400" font-stretch="condensed" font-size="22.182" font-family="Nimbus Sans L" letter-spacing="0" word-spacing="0" fill="#ae0611"><path style="-inkscape-font-specification:'Nimbus Sans L, Condensed';font-variant-ligatures:normal;font-variant-caps:normal;font-variant-numeric:normal;font-feature-settings:normal;text-align:start" d="M16.552 21.201c-.117-2.654-1.246-4.146-3.153-4.146-1.927 0-3.192 1.643-3.192 4.171 0 1.694.623 2.756 1.927 3.262l1.635.632c1.284.505 1.654.91 1.654 1.896 0 1.289-.74 2.072-1.966 2.072-1.42 0-2.063-.809-2.16-2.68H9.934c.059 1.315.156 1.947.448 2.63.525 1.29 1.596 1.997 2.978 1.997 2.121 0 3.464-1.694 3.464-4.348 0-1.87-.642-2.831-2.335-3.514l-1.421-.556c-1.226-.48-1.499-.81-1.499-1.745 0-1.162.662-1.87 1.733-1.87 1.226 0 1.83.708 1.888 2.2zM18.443 30.656h1.401V23.45c0-2.68.876-4.424 2.22-4.424.817 0 1.303.91 1.303 2.477v9.152h1.402v-8.064c0-1.998.876-3.565 2.005-3.565 1.031 0 1.518 1.011 1.518 3.084v8.545h1.401v-9.152c0-2.755-1.012-4.449-2.627-4.449-1.013 0-1.558.455-2.511 2.149-.526-1.542-1.168-2.149-2.2-2.149-1.11 0-1.868.683-2.588 2.326v-1.947h-1.324zM37.84 21.201c-.116-2.654-1.245-4.146-3.153-4.146-1.926 0-3.192 1.643-3.192 4.171 0 1.694.623 2.756 1.927 3.262l1.635.632c1.285.505 1.655.91 1.655 1.896 0 1.289-.74 2.072-1.966 2.072-1.421 0-2.063-.809-2.16-2.68h-1.363c.058 1.315.156 1.947.448 2.63.525 1.29 1.596 1.997 2.978 1.997 2.121 0 3.464-1.694 3.464-4.348 0-1.87-.642-2.831-2.336-3.514l-1.42-.556c-1.227-.48-1.5-.81-1.5-1.745 0-1.162.663-1.87 1.733-1.87 1.226 0 1.83.708 1.888 2.2z"/></g></svg>